Nobile-Bold-KM.ufo
<glyph name="quotesingle" format="1">
  <advance width="691"/>
  <unicode hex="0027"/>
  <outline>
    <contour>
      <point x="240" y="804" type="line"/>
      <point x="420" y="804" type="line"/>
      <point x="434.435312341" y="905.570402552"/>
      <point x="506.212408335" y="1396.07475758"/>
      <point x="525.360563508" y="1538.90270456" type="curve" smooth="yes"/>
      <point x="528.682981951" y="1563.68494602"/>
      <point x="530.420947212" y="1578.0"/>
      <point x="530" y="1578" type="curve" smooth="yes"/>
      <point x="156" y="1578" type="line"/>
      <point x="159.933432296" y="1541.75623099" type="line"/>
    </contour>
  </outline>
</glyph>
<glyph name="one" format="1">
  <advance width="912"/>
  <unicode hex="0031"/>
  <outline>
    <contour>
      <point x="350" y="0" type="line"/>
      <point x="698" y="0" type="line"/>
      <point x="698" y="1171" type="line"/>
      <point x="367" y="1171" type="line"/>
      <point x="100" y="1063" type="line"/>
      <point x="194" y="825" type="line"/>
      <point x="350" y="892" type="line"/>
    </contour>
  </outline>
</glyph>
<glyph name="two" format="1">
  <advance width="1174"/>
  <unicode hex="0032"/>
  <outline>
    <contour>
      <point x="168" y="0" type="line"/>
      <point x="1026" y="0" type="line"/>
      <point x="1026" y="268" type="line"/>
      <point x="654" y="268" type="line"/>
      <point x="798" y="396" type="line" smooth="yes"/>
      <point x="993" y="570"/>
      <point x="1057" y="675"/>
      <point x="1057" y="834" type="curve" smooth="yes"/>
      <point x="1057" y="1104"/>
      <point x="812" y="1191"/>
      <point x="592" y="1191" type="curve" smooth="yes"/>
      <point x="414.452" y="1191"/>
      <point x="183.332" y="1085.67"/>
      <point x="140" y="1064" type="curve"/>
      <point x="231" y="825" type="line"/>
      <point x="287.318" y="881.318"/>
      <point x="486.763" y="928.589"/>
      <point x="570" y="930" type="curve"/>
      <point x="678" y="930"/>
      <point x="724" y="883"/>
      <point x="724" y="786" type="curve" smooth="yes"/>
      <point x="724" y="675.796"/>
      <point x="567.421" y="554.972"/>
      <point x="493" y="492" type="curve" smooth="yes"/>
      <point x="168" y="217" type="line"/>
    </contour>
  </outline>
</glyph>
<glyph name="four" format="1">
  <advance width="1281"/>
  <unicode hex="0034"/>
  <outline>
    <contour>
      <point x="697" y="-217" type="line"/>
      <point x="985" y="-217" type="line"/>
      <point x="985" y="59" type="line"/>
      <point x="1165" y="59" type="line"/>
      <point x="1165" y="317" type="line"/>
      <point x="985" y="317" type="line"/>
      <point x="985" y="1151" type="line"/>
      <point x="733" y="1217" type="line"/>
      <point x="84" y="260" type="line"/>
      <point x="125" y="59" type="line"/>
      <point x="697" y="59" type="line"/>
    </contour>
    <contour>
      <point x="417" y="315" type="line"/>
      <point x="697" y="733" type="line"/>
      <point x="697" y="315" type="line"/>
    </contour>
  </outline>
</glyph>
<glyph name="seven" format="1">
  <advance width="1126"/>
  <unicode hex="0037"/>
  <outline>
    <contour>
      <point x="502" y="-236" type="line"/>
      <point x="1090" y="989" type="line"/>
      <point x="1008" y="1169" type="line"/>
      <point x="130" y="1169" type="line"/>
      <point x="130" y="911" type="line"/>
      <point x="693" y="911" type="line"/>
      <point x="205" y="-104" type="line"/>
    </contour>
  </outline>
</glyph>
<glyph name="colon" format="1">
  <advance width="759"/>
  <unicode hex="003A"/>
  <outline>
    <contour>
      <point x="180" y="0" type="line"/>
      <point x="579" y="0" type="line"/>
      <point x="579" y="432" type="line"/>
      <point x="180" y="432" type="line"/>
    </contour>
    <contour>
      <point x="180" y="736" type="line"/>
      <point x="579" y="736" type="line"/>
      <point x="579" y="1164" type="line"/>
      <point x="180" y="1164" type="line"/>
    </contour>
  </outline>
</glyph>
<glyph name="E" format="1">
  <advance width="1281"/>
  <unicode hex="0045"/>
  <outline>
    <contour>
      <point x="167" y="0" type="line"/>
      <point x="1197" y="0" type="line"/>
      <point x="1197" y="268" type="line"/>
      <point x="535" y="268" type="line"/>
      <point x="535" y="703" type="line"/>
      <point x="1117" y="703" type="line"/>
      <point x="1117" y="929" type="line"/>
      <point x="535" y="929" type="line"/>
      <point x="535" y="1310" type="line"/>
      <point x="1187" y="1310" type="line"/>
      <point x="1187" y="1578" type="line"/>
      <point x="167" y="1578" type="line"/>
    </contour>
    <contour>
      <point x="669" y="1578" type="move" name="top"/>
    </contour>
    <contour>
      <point x="669" y="0" type="move" name="bottom"/>
    </contour>
    <contour>
      <point x="1186" y="10" type="move" name="ogonek"/>
    </contour>
  </outline>
</glyph>
<glyph name="I" format="1">
  <advance width="864"/>
  <unicode hex="0049"/>
  <outline>
    <contour>
      <point x="77" y="0" type="line"/>
      <point x="787" y="0" type="line"/>
      <point x="787" y="239" type="line"/>
      <point x="616" y="239" type="line"/>
      <point x="616" y="1339" type="line"/>
      <point x="787" y="1339" type="line"/>
      <point x="787" y="1578" type="line"/>
      <point x="77" y="1578" type="line"/>
      <point x="77" y="1339" type="line"/>
      <point x="247" y="1339" type="line"/>
      <point x="247" y="239" type="line"/>
      <point x="77" y="239" type="line"/>
    </contour>
    <contour>
      <point x="432" y="1578" type="move" name="top"/>
    </contour>
    <contour>
      <point x="778" y="10" type="move" name="ogonek"/>
    </contour>
  </outline>
</glyph>
<glyph name="O" format="1">
  <advance width="1632"/>
  <unicode hex="004F"/>
  <outline>
    <contour>
      <point x="816" y="238" type="curve" smooth="yes"/>
      <point x="545" y="238"/>
      <point x="474" y="484"/>
      <point x="474" y="789" type="curve" smooth="yes"/>
      <point x="474" y="1093"/>
      <point x="545" y="1336"/>
      <point x="816" y="1336" type="curve" smooth="yes"/>
      <point x="1086" y="1336"/>
      <point x="1158" y="1095"/>
      <point x="1158" y="789" type="curve" smooth="yes"/>
      <point x="1158" y="491"/>
      <point x="1090" y="238"/>
    </contour>
    <contour>
      <point x="816" y="-28" type="curve" smooth="yes"/>
      <point x="1305" y="-28"/>
      <point x="1530" y="288"/>
      <point x="1530" y="789" type="curve" smooth="yes"/>
      <point x="1530" y="1299"/>
      <point x="1294" y="1602"/>
      <point x="816" y="1602" type="curve" smooth="yes"/>
      <point x="339" y="1602"/>
      <point x="102" y="1302"/>
      <point x="102" y="789" type="curve" smooth="yes"/>
      <point x="102" y="288"/>
      <point x="327" y="-28"/>
    </contour>
    <contour>
      <point x="816" y="1578" type="move" name="top"/>
    </contour>
  </outline>
</glyph>
<glyph name="backslash" format="1">
  <advance width="1181"/>
  <unicode hex="005C"/>
  <outline>
    <contour>
      <point x="738" y="-147" type="line"/>
      <point x="1058" y="-36" type="line"/>
      <point x="487" y="1687" type="line"/>
      <point x="166" y="1578" type="line"/>
    </contour>
  </outline>
</glyph>
<glyph name="g" format="1">
  <advance width="1295"/>
  <unicode hex="0067"/>
  <outline>
    <contour>
      <point x="529" y="-549" type="curve" smooth="yes"/>
      <point x="811" y="-549"/>
      <point x="1220" y="-491"/>
      <point x="1220" y="-132" type="curve" smooth="yes"/>
      <point x="1220" y="187"/>
      <point x="1024" y="230"/>
      <point x="683" y="230" type="curve" smooth="yes"/>
      <point x="627" y="230"/>
      <point x="492" y="230"/>
      <point x="440" y="230" type="curve"/>
      <point x="435" y="236"/>
      <point x="412" y="263"/>
      <point x="412" y="289" type="curve" smooth="yes"/>
      <point x="412" y="338"/>
      <point x="458" y="402"/>
      <point x="458" y="402" type="curve" smooth="yes"/>
      <point x="495" y="388"/>
      <point x="590" y="386"/>
      <point x="626" y="386" type="curve" smooth="yes"/>
      <point x="889" y="386"/>
      <point x="1109" y="499"/>
      <point x="1109" y="776" type="curve" smooth="yes"/>
      <point x="1109" y="832"/>
      <point x="1081" y="929"/>
      <point x="1044" y="971" type="curve"/>
      <point x="1281" y="971" type="line"/>
      <point x="1281" y="1197" type="line"/>
      <point x="1145" y="1197"/>
      <point x="1039" y="1195"/>
      <point x="912" y="1139" type="curve"/>
      <point x="821" y="1194"/>
      <point x="685" y="1199"/>
      <point x="582" y="1199" type="curve" smooth="yes"/>
      <point x="362" y="1199"/>
      <point x="93" y="1082"/>
      <point x="93" y="822" type="curve" smooth="yes"/>
      <point x="93" y="637"/>
      <point x="161" y="520"/>
      <point x="306" y="460" type="curve"/>
      <point x="248" y="425"/>
      <point x="119" y="360"/>
      <point x="119" y="231" type="curve" smooth="yes"/>
      <point x="119" y="142"/>
      <point x="187" y="39"/>
      <point x="265" y="30" type="curve"/>
      <point x="155" y="-32"/>
      <point x="94" y="-105"/>
      <point x="94" y="-220" type="curve" smooth="yes"/>
      <point x="94" y="-470"/>
      <point x="326" y="-549"/>
    </contour>
    <contour>
      <point x="568" y="-303" type="curve" smooth="yes"/>
      <point x="477" y="-303"/>
      <point x="346" y="-300"/>
      <point x="346" y="-177" type="curve" smooth="yes"/>
      <point x="346" y="-104"/>
      <point x="372" y="-71"/>
      <point x="406" y="-9" type="curve"/>
      <point x="474" y="-9"/>
      <point x="535" y="-8"/>
      <point x="589" y="-9" type="curve" smooth="yes"/>
      <point x="829" y="-9"/>
      <point x="931" y="8"/>
      <point x="931" y="-123" type="curve" smooth="yes"/>
      <point x="931" y="-306"/>
      <point x="700" y="-303"/>
    </contour>
    <contour>
      <point x="601" y="586" type="curve"/>
      <point x="481" y="586"/>
      <point x="387" y="660"/>
      <point x="387" y="805" type="curve" smooth="yes"/>
      <point x="387" y="927"/>
      <point x="500" y="996"/>
      <point x="615" y="996" type="curve" smooth="yes"/>
      <point x="753" y="996"/>
      <point x="822" y="917"/>
      <point x="822" y="779" type="curve" smooth="yes"/>
      <point x="822" y="637"/>
      <point x="720" y="586"/>
    </contour>
    <contour>
      <point x="633" y="1167" type="move" name="top"/>
    </contour>
  </outline>
</glyph>
<glyph name="j" format="1">
  <advance width="715"/>
  <unicode hex="006A"/>
  <outline>
    <contour>
      <point x="114" y="-377" type="line"/>
      <point x="357" y="-321"/>
      <point x="563" y="-115"/>
      <point x="563" y="174" type="curve" smooth="yes"/>
      <point x="563" y="1164" type="line"/>
      <point x="212" y="1164" type="line"/>
      <point x="212" y="194" type="line" smooth="yes"/>
      <point x="212" y="10"/>
      <point x="135" y="-67"/>
      <point x="3" y="-142" type="curve"/>
    </contour>
    <contour>
      <point x="386" y="1338" type="curve" smooth="yes"/>
      <point x="497" y="1338"/>
      <point x="575" y="1423"/>
      <point x="575" y="1532" type="curve" smooth="yes"/>
      <point x="575" y="1641"/>
      <point x="496" y="1726"/>
      <point x="386" y="1726" type="curve" smooth="yes"/>
      <point x="277" y="1726"/>
      <point x="197" y="1644"/>
      <point x="197" y="1532" type="curve" smooth="yes"/>
      <point x="197" y="1427"/>
      <point x="274" y="1338"/>
    </contour>
  </outline>
</glyph>
<glyph name="n" format="1">
  <advance width="1319"/>
  <unicode hex="006E"/>
  <outline>
    <contour>
      <point x="140" y="0" type="line"/>
      <point x="491" y="0" type="line"/>
      <point x="491" y="856" type="line"/>
      <point x="515" y="888"/>
      <point x="610" y="961"/>
      <point x="704" y="961" type="curve" smooth="yes"/>
      <point x="812" y="961"/>
      <point x="843" y="909"/>
      <point x="843" y="747" type="curve" smooth="yes"/>
      <point x="843" y="0" type="line"/>
      <point x="1194" y="0" type="line"/>
      <point x="1194" y="730" type="line" smooth="yes"/>
      <point x="1194" y="1078"/>
      <point x="1007" y="1196"/>
      <point x="824" y="1196" type="curve" smooth="yes"/>
      <point x="672" y="1196"/>
      <point x="517" y="1092"/>
      <point x="453" y="1016" type="curve"/>
      <point x="406" y="1164" type="line"/>
      <point x="140" y="1164" type="line"/>
    </contour>
    <contour>
      <point x="652" y="1164" type="move" name="top"/>
    </contour>
    <contour>
      <point x="652" y="0" type="move" name="bottom"/>
    </contour>
  </outline>
</glyph>
<glyph name="v" format="1">
  <advance width="1215"/>
  <unicode hex="0076"/>
  <outline>
    <contour>
      <point x="397" y="0" type="line"/>
      <point x="821" y="0" type="line"/>
      <point x="1194" y="1164" type="line"/>
      <point x="822" y="1164" type="line"/>
      <point x="609" y="301" type="line"/>
      <point x="389" y="1164" type="line"/>
      <point x="21" y="1164" type="line"/>
    </contour>
  </outline>
</glyph>
<glyph name="y" format="1">
  <advance width="1220"/>
  <unicode hex="0079"/>
  <outline>
    <contour>
      <point x="244" y="-468" type="line"/>
      <point x="539" y="-466"/>
      <point x="704" y="-327"/>
      <point x="800" y="-32" type="curve"/>
      <point x="1196" y="1164" type="line"/>
      <point x="842" y="1164" type="line"/>
      <point x="650" y="374" type="line"/>
      <point x="374" y="1164" type="line"/>
      <point x="16" y="1164" type="line"/>
      <point x="498" y="43" type="line"/>
      <point x="449" y="-142"/>
      <point x="396" y="-213"/>
      <point x="146" y="-231" type="curve"/>
    </contour>
    <contour>
      <point x="610" y="1164" type="move" name="top"/>
    </contour>
  </outline>
</glyph>
<glyph name="z" format="1">
  <advance width="1012"/>
  <unicode hex="007A"/>
  <outline>
    <contour>
      <point x="74" y="0" type="line"/>
      <point x="936" y="0" type="line"/>
      <point x="936" y="264" type="line"/>
      <point x="457" y="264" type="line"/>
      <point x="925" y="933" type="line"/>
      <point x="925" y="1164" type="line"/>
      <point x="86" y="1164" type="line"/>
      <point x="86" y="899" type="line"/>
      <point x="549" y="899" type="line"/>
      <point x="74" y="233" type="line"/>
    </contour>
    <contour>
      <point x="506" y="1164" type="move" name="top"/>
    </contour>
  </outline>
</glyph>
<glyph name="yen" format="1">
  <advance width="1277"/>
  <unicode hex="00A5"/>
  <outline>
    <contour>
      <point x="462" y="0" type="line"/>
      <point x="810" y="0" type="line"/>
      <point x="810" y="402" type="line"/>
      <point x="1134" y="402" type="line"/>
      <point x="1134" y="522" type="line"/>
      <point x="812" y="522" type="line"/>
      <point x="874" y="651" type="line"/>
      <point x="1134" y="651" type="line"/>
      <point x="1134" y="771" type="line"/>
      <point x="932" y="771" type="line"/>
      <point x="1320" y="1577" type="line"/>
      <point x="936" y="1577" type="line"/>
      <point x="636" y="811" type="line"/>
      <point x="336" y="1577" type="line"/>
      <point x="-42" y="1577" type="line"/>
      <point x="342" y="771" type="line"/>
      <point x="138" y="771" type="line"/>
      <point x="138" y="651" type="line"/>
      <point x="399" y="651" type="line"/>
      <point x="460" y="522" type="line"/>
      <point x="138" y="522" type="line"/>
      <point x="138" y="402" type="line"/>
      <point x="462" y="402" type="line"/>
    </contour>
  </outline>
</glyph>
<glyph name="dieresis" format="1">
  <advance width="1246"/>
  <unicode hex="00A8"/>
  <outline>
    <contour>
      <point x="291" y="1274" type="curve" smooth="yes"/>
      <point x="400" y="1274"/>
      <point x="487" y="1358"/>
      <point x="487" y="1468" type="curve" smooth="yes"/>
      <point x="487" y="1577"/>
      <point x="399" y="1662"/>
      <point x="291" y="1662" type="curve" smooth="yes"/>
      <point x="182" y="1662"/>
      <point x="98" y="1577"/>
      <point x="98" y="1468" type="curve" smooth="yes"/>
      <point x="98" y="1362"/>
      <point x="179" y="1274"/>
    </contour>
    <contour>
      <point x="961" y="1274" type="curve" smooth="yes"/>
      <point x="1070" y="1274"/>
      <point x="1157" y="1358"/>
      <point x="1157" y="1468" type="curve" smooth="yes"/>
      <point x="1157" y="1577"/>
      <point x="1069" y="1662"/>
      <point x="961" y="1662" type="curve" smooth="yes"/>
      <point x="852" y="1662"/>
      <point x="768" y="1577"/>
      <point x="768" y="1468" type="curve" smooth="yes"/>
      <point x="768" y="1362"/>
      <point x="849" y="1274"/>
    </contour>
    <contour>
      <point x="627.5" y="1164" type="move" name="_top"/>
    </contour>
  </outline>
</glyph>
<glyph name="guillemotleft" format="1">
  <advance width="1846"/>
  <unicode hex="00AB"/>
  <outline>
    <contour>
      <point x="904" y="-51" type="line"/>
      <point x="904" y="285" type="line"/>
      <point x="432" y="579" type="line"/>
      <point x="904" y="862" type="line"/>
      <point x="904" y="1200" type="line"/>
      <point x="98" y="696" type="line"/>
      <point x="98" y="453" type="line"/>
    </contour>
    <contour>
      <point x="1708" y="-51" type="line"/>
      <point x="1708" y="285" type="line"/>
      <point x="1236" y="579" type="line"/>
      <point x="1708" y="862" type="line"/>
      <point x="1708" y="1200" type="line"/>
      <point x="902" y="696" type="line"/>
      <point x="902" y="453" type="line"/>
    </contour>
  </outline>
</glyph>
<glyph name="logicalnot" format="1">
  <advance width="1130"/>
  <unicode hex="00AC"/>
  <outline>
    <contour>
      <point x="867" y="224" type="line"/>
      <point x="1059" y="224" type="line"/>
      <point x="1059" y="846" type="line"/>
      <point x="63" y="846" type="line"/>
      <point x="63" y="584" type="line"/>
      <point x="867" y="584" type="line"/>
    </contour>
  </outline>
</glyph>
<glyph name="uni00AD" format="1">
  <advance width="1120"/>
  <unicode hex="00AD"/>
  <outline>
    <contour>
      <point x="156" y="574" type="line"/>
      <point x="950" y="574" type="line"/>
      <point x="950" y="836" type="line"/>
      <point x="156" y="836" type="line"/>
    </contour>
  </outline>
</glyph>
<glyph name="uni00B2" format="1">
  <advance width="1174"/>
  <unicode hex="00B2"/>
  <outline>
    <contour>
      <point x="184" y="622" type="line"/>
      <point x="871" y="622" type="line"/>
      <point x="871" y="823" type="line"/>
      <point x="540" y="823" type="line"/>
      <point x="688" y="939" type="line" smooth="yes"/>
      <point x="851.483" y="1067.14"/>
      <point x="896" y="1161"/>
      <point x="896" y="1289" type="curve" smooth="yes"/>
      <point x="896" y="1505"/>
      <point x="699" y="1575"/>
      <point x="524" y="1575" type="curve" smooth="yes"/>
      <point x="379.55" y="1575"/>
      <point x="195.9" y="1489.95"/>
      <point x="162" y="1473" type="curve"/>
      <point x="235" y="1282" type="line"/>
      <point x="304.588" y="1315.85"/>
      <point x="421.899" y="1366"/>
      <point x="506" y="1366" type="curve" smooth="yes"/>
      <point x="593" y="1366"/>
      <point x="629" y="1328"/>
      <point x="629" y="1251" type="curve" smooth="yes"/>
      <point x="629" y="1165.13"/>
      <point x="500.514" y="1063.82"/>
      <point x="444" y="1016" type="curve" smooth="yes"/>
      <point x="184" y="796" type="line"/>
    </contour>
  </outline>
</glyph>
<glyph name="middot" format="1">
  <advance width="621"/>
  <unicode hex="00B7"/>
  <outline>
    <contour>
      <point x="310" y="494" type="curve" smooth="yes"/>
      <point x="427" y="494"/>
      <point x="522" y="590"/>
      <point x="522" y="705" type="curve" smooth="yes"/>
      <point x="522" y="820"/>
      <point x="427" y="916"/>
      <point x="310" y="916" type="curve" smooth="yes"/>
      <point x="194" y="916"/>
      <point x="100" y="820"/>
      <point x="100" y="705" type="curve" smooth="yes"/>
      <point x="100" y="647"/>
      <point x="120" y="597"/>
      <point x="161" y="556" type="curve" smooth="yes"/>
      <point x="202" y="515"/>
      <point x="252" y="494"/>
    </contour>
  </outline>
</glyph>
<glyph name="ordmasculine" format="1">
  <advance width="1281"/>
  <unicode hex="00BA"/>
  <outline>
    <contour>
      <point x="611" y="859" type="curve" smooth="yes"/>
      <point x="466.02" y="859"/>
      <point x="435" y="994.017"/>
      <point x="435" y="1160" type="curve" smooth="yes"/>
      <point x="435" y="1366"/>
      <point x="491" y="1461"/>
      <point x="611" y="1461" type="curve" smooth="yes"/>
      <point x="731" y="1461"/>
      <point x="787" y="1366"/>
      <point x="787" y="1160" type="curve" smooth="yes"/>
      <point x="787" y="954"/>
      <point x="731" y="859"/>
    </contour>
    <contour>
      <point x="611" y="672" type="curve" smooth="yes"/>
      <point x="904" y="672"/>
      <point x="1065" y="851"/>
      <point x="1065" y="1159" type="curve" smooth="yes"/>
      <point x="1065" y="1468"/>
      <point x="901" y="1650"/>
      <point x="610" y="1650" type="curve" smooth="yes"/>
      <point x="320" y="1650"/>
      <point x="155" y="1469"/>
      <point x="155" y="1159" type="curve" smooth="yes"/>
      <point x="155" y="849"/>
      <point x="318" y="672"/>
    </contour>
  </outline>
</glyph>
<glyph name="guillemotright" format="1">
  <advance width="1888"/>
  <unicode hex="00BB"/>
  <outline>
    <contour>
      <point x="170" y="-51" type="line"/>
      <point x="976" y="453" type="line"/>
      <point x="976" y="696" type="line"/>
      <point x="170" y="1200" type="line"/>
      <point x="170" y="862" type="line"/>
      <point x="651" y="579" type="line"/>
      <point x="170" y="285" type="line"/>
    </contour>
    <contour>
      <point x="974" y="-51" type="line"/>
      <point x="1780" y="453" type="line"/>
      <point x="1780" y="696" type="line"/>
      <point x="974" y="1200" type="line"/>
      <point x="974" y="862" type="line"/>
      <point x="1455" y="579" type="line"/>
      <point x="974" y="285" type="line"/>
    </contour>
  </outline>
</glyph>
<glyph name="threequarters" format="1">
  <advance width="2126"/>
  <unicode hex="00BE"/>
  <outline>
    <contour>
      <point x="396" y="409" type="curve"/>
      <point x="632" y="409"/>
      <point x="810" y="509"/>
      <point x="810" y="741" type="curve" smooth="yes"/>
      <point x="810" y="851"/>
      <point x="727" y="961"/>
      <point x="620" y="987" type="curve"/>
      <point x="720" y="1013"/>
      <point x="782" y="1110"/>
      <point x="782" y="1208" type="curve"/>
      <point x="777" y="1434"/>
      <point x="616" y="1511"/>
      <point x="381" y="1511" type="curve" smooth="yes"/>
      <point x="236.642" y="1511"/>
      <point x="132.223" y="1457.7"/>
      <point x="82" y="1429" type="curve"/>
      <point x="173" y="1246" type="line"/>
      <point x="227.205" y="1267.68"/>
      <point x="326.428" y="1302"/>
      <point x="401" y="1302" type="curve" smooth="yes"/>
      <point x="480" y="1302"/>
      <point x="533" y="1273"/>
      <point x="533" y="1213" type="curve"/>
      <point x="531" y="1118"/>
      <point x="427" y="1086"/>
      <point x="314" y="1086" type="curve"/>
      <point x="314" y="889" type="line"/>
      <point x="434.684" y="889"/>
      <point x="551" y="838.626"/>
      <point x="551" y="738" type="curve" smooth="yes"/>
      <point x="551" y="649"/>
      <point x="496" y="615"/>
      <point x="388" y="615" type="curve" smooth="yes"/>
      <point x="280" y="615"/>
      <point x="168" y="663"/>
      <point x="163" y="665" type="curve"/>
      <point x="97" y="463" type="line"/>
      <point x="178.348" y="429.858"/>
      <point x="254.567" y="407.666"/>
    </contour>
    <contour>
      <point x="1673" y="-125" type="line"/>
      <point x="1897" y="-125" type="line"/>
      <point x="1897" y="96" type="line"/>
      <point x="2036" y="96" type="line"/>
      <point x="2036" y="303" type="line"/>
      <point x="1897" y="303" type="line"/>
      <point x="1897" y="970" type="line"/>
      <point x="1690" y="1023" type="line"/>
      <point x="1171" y="257" type="line"/>
      <point x="1204" y="96" type="line"/>
      <point x="1673" y="96" type="line"/>
    </contour>
    <contour>
      <point x="826" y="-125" type="line"/>
      <point x="1543" y="1458" type="line"/>
      <point x="1316" y="1541" type="line"/>
      <point x="611" y="-29" type="line"/>
    </contour>
    <contour>
      <point x="1447" y="301" type="line"/>
      <point x="1673" y="657" type="line"/>
      <point x="1673" y="301" type="line"/>
    </contour>
  </outline>
</glyph>
<glyph name="divide" format="1">
  <advance width="1190"/>
  <unicode hex="00F7"/>
  <outline>
    <contour>
      <point x="601" y="112" type="curve" smooth="yes"/>
      <point x="712" y="112"/>
      <point x="790" y="197"/>
      <point x="790" y="306" type="curve" smooth="yes"/>
      <point x="790" y="414"/>
      <point x="710" y="500"/>
      <point x="601" y="500" type="curve" smooth="yes"/>
      <point x="492" y="500"/>
      <point x="412" y="416"/>
      <point x="412" y="306" type="curve" smooth="yes"/>
      <point x="412" y="195.808"/>
      <point x="491.064" y="112"/>
    </contour>
    <contour>
      <point x="94" y="593" type="line"/>
      <point x="1098" y="593" type="line"/>
      <point x="1098" y="855" type="line"/>
      <point x="94" y="855" type="line"/>
    </contour>
    <contour>
      <point x="598" y="950" type="curve" smooth="yes"/>
      <point x="709" y="950"/>
      <point x="787" y="1035"/>
      <point x="787" y="1144" type="curve" smooth="yes"/>
      <point x="787" y="1252"/>
      <point x="707" y="1338"/>
      <point x="598" y="1338" type="curve" smooth="yes"/>
      <point x="489" y="1338"/>
      <point x="409" y="1254"/>
      <point x="409" y="1144" type="curve" smooth="yes"/>
      <point x="409" y="1033.81"/>
      <point x="488.064" y="950"/>
    </contour>
  </outline>
</glyph>
<glyph name="dotlessi" format="1">
  <advance width="669"/>
  <unicode hex="0131"/>
  <outline>
    <contour>
      <point x="157" y="0" type="line"/>
      <point x="508" y="0" type="line"/>
      <point x="508" y="1160" type="line"/>
      <point x="157" y="1160" type="line"/>
    </contour>
    <contour>
      <point x="335" y="1164" type="move" name="top"/>
    </contour>
    <contour>
      <point x="602" y="10" type="move" name="ogonek"/>
    </contour>
  </outline>
</glyph>
<glyph name="oe" format="1">
  <advance width="1993"/>
  <unicode hex="0153"/>
  <outline>
    <contour>
      <point x="638" y="-26" type="curve" smooth="yes"/>
      <point x="804.082" y="-26"/>
      <point x="933.593" y="27.3241"/>
      <point x="1022.78" y="126.242" type="curve"/>
      <point x="1129.42" y="26.9753"/>
      <point x="1282.31" y="-26"/>
      <point x="1465" y="-26" type="curve" smooth="yes"/>
      <point x="1599" y="-26"/>
      <point x="1731" y="7"/>
      <point x="1854" y="70" type="curve"/>
      <point x="1788" y="304" type="line"/>
      <point x="1705" y="244"/>
      <point x="1606" y="212"/>
      <point x="1492" y="212" type="curve" smooth="yes"/>
      <point x="1326" y="212"/>
      <point x="1224" y="325"/>
      <point x="1218" y="502" type="curve"/>
      <point x="1909" y="502" type="line"/>
      <point x="1909" y="666" type="line" smooth="yes"/>
      <point x="1909" y="979"/>
      <point x="1743" y="1196"/>
      <point x="1430" y="1196" type="curve" smooth="yes"/>
      <point x="1256.96" y="1196"/>
      <point x="1121.59" y="1136.92"/>
      <point x="1026.08" y="1036.38" type="curve"/>
      <point x="935.942" y="1140.17"/>
      <point x="804.269" y="1196"/>
      <point x="637" y="1196" type="curve" smooth="yes"/>
      <point x="274" y="1196"/>
      <point x="68" y="970"/>
      <point x="68" y="582" type="curve" smooth="yes"/>
      <point x="68" y="199"/>
      <point x="271" y="-26"/>
    </contour>
    <contour>
      <point x="638" y="208" type="curve" smooth="yes"/>
      <point x="443" y="208"/>
      <point x="418" y="423"/>
      <point x="418" y="584" type="curve" smooth="yes"/>
      <point x="418" y="842"/>
      <point x="488" y="960"/>
      <point x="638" y="960" type="curve" smooth="yes"/>
      <point x="788" y="960"/>
      <point x="858" y="842"/>
      <point x="858" y="584" type="curve" smooth="yes"/>
      <point x="858" y="326"/>
      <point x="788" y="208"/>
    </contour>
    <contour>
      <point x="1207" y="676" type="line"/>
      <point x="1207" y="839"/>
      <point x="1282" y="960"/>
      <point x="1424" y="960" type="curve" smooth="yes"/>
      <point x="1564.64359093" y="960.0"/>
      <point x="1631.83484223" y="869.376983577"/>
      <point x="1634.89067382" y="689.062642724" type="curve" smooth="yes"/>
      <point x="1634.96360015" y="684.75950537"/>
      <point x="1635.0" y="680.405286908"/>
      <point x="1635" y="676" type="curve"/>
    </contour>
    <contour>
      <point x="997" y="1164" type="move" name="top"/>
    </contour>
  </outline>
</glyph>
<glyph name="mu" format="1">
  <advance width="1351"/>
  <unicode hex="03BC"/>
  <outline>
    <contour>
      <point x="489" y="-488" type="line"/>
      <point x="489" y="16" type="line" smooth="yes"/>
      <point x="489" y="12"/>
      <point x="563" y="-15"/>
      <point x="620" y="-15" type="curve" smooth="yes"/>
      <point x="793" y="-15"/>
      <point x="877" y="88"/>
      <point x="900" y="168" type="curve"/>
      <point x="978" y="1" type="line"/>
      <point x="1226" y="1" type="line"/>
      <point x="1226" y="1161" type="line"/>
      <point x="874" y="1161" type="line"/>
      <point x="874" y="296" type="line"/>
      <point x="833" y="249"/>
      <point x="765" y="219"/>
      <point x="679" y="219" type="curve" smooth="yes"/>
      <point x="606.006" y="219"/>
      <point x="515.82" y="263.59"/>
      <point x="489" y="277" type="curve"/>
      <point x="489" y="1161" type="line"/>
      <point x="139" y="1161" type="line"/>
      <point x="139" y="-428" type="line"/>
    </contour>
  </outline>
</glyph>
<glyph name="quoteright" format="1">
  <advance width="539"/>
  <unicode hex="2019"/>
  <outline>
    <contour>
      <point x="122" y="856" type="line"/>
      <point x="296" y="907"/>
      <point x="477" y="980"/>
      <point x="477" y="1216" type="curve" smooth="yes"/>
      <point x="477" y="1578" type="line"/>
      <point x="59" y="1578" type="line"/>
      <point x="59" y="1163" type="line"/>
      <point x="237" y="1163" type="line"/>
      <point x="237" y="1061"/>
      <point x="187" y="1016"/>
      <point x="60" y="970" type="curve"/>
    </contour>
  </outline>
</glyph>
<glyph name="quotedblright" format="1">
  <advance width="1002"/>
  <unicode hex="201D"/>
  <outline>
    <contour>
      <point x="122" y="856" type="line"/>
      <point x="296" y="907"/>
      <point x="477" y="980"/>
      <point x="477" y="1216" type="curve" smooth="yes"/>
      <point x="477" y="1578" type="line"/>
      <point x="59" y="1578" type="line"/>
      <point x="59" y="1163" type="line"/>
      <point x="237" y="1163" type="line"/>
      <point x="237" y="1061"/>
      <point x="187" y="1016"/>
      <point x="60" y="970" type="curve"/>
    </contour>
    <contour>
      <point x="646" y="856" type="line"/>
      <point x="820" y="907"/>
      <point x="1001" y="980"/>
      <point x="1001" y="1216" type="curve" smooth="yes"/>
      <point x="1001" y="1578" type="line"/>
      <point x="583" y="1578" type="line"/>
      <point x="583" y="1163" type="line"/>
      <point x="761" y="1163" type="line"/>
      <point x="761" y="1061"/>
      <point x="711" y="1016"/>
      <point x="584" y="970" type="curve"/>
    </contour>
  </outline>
</glyph>
<glyph name="bullet" format="1">
  <advance width="1216"/>
  <unicode hex="2022"/>
  <outline>
    <contour>
      <point x="611" y="317" type="curve" smooth="yes"/>
      <point x="828.492" y="317"/>
      <point x="1000" y="493.505"/>
      <point x="1000" y="680" type="curve" smooth="yes"/>
      <point x="1000" y="894"/>
      <point x="802" y="1044"/>
      <point x="603" y="1044" type="curve" smooth="yes"/>
      <point x="397" y="1044"/>
      <point x="216" y="877"/>
      <point x="216" y="680" type="curve" smooth="yes"/>
      <point x="216" y="464"/>
      <point x="413" y="317"/>
    </contour>
  </outline>
</glyph>
<glyph name="lozenge" format="1">
  <advance width="1385"/>
  <unicode hex="25CA"/>
  <outline>
    <contour>
      <point x="692" y="-117" type="line"/>
      <point x="1242" y="576" type="line"/>
      <point x="1242" y="732" type="line"/>
      <point x="692" y="1425" type="line"/>
      <point x="142" y="732" type="line"/>
      <point x="142" y="576" type="line"/>
    </contour>
    <contour>
      <point x="692" y="184" type="line"/>
      <point x="367" y="654" type="line"/>
      <point x="692" y="1124" type="line"/>
      <point x="1017" y="654" type="line"/>
    </contour>
  </outline>
</glyph>
